M48
METRIC,TZ
T1C0.400
T2C0.900
T3C1.016
T4C1.200
T5C2.500
%
G90
G05
T1
X6.5Y-10.25
X6.75Y-12.75
X10.4Y-5.5
X10.5Y-2.
X17.5Y-16.75
X18.25Y-7.5
X18.3Y-6.3
X20.3Y-7.9
X20.9Y-6.3
X21.9Y-3.8
X22.5Y-10.1
X23.4Y-6.8
X28.25Y-3.75
X30.5Y-13.6
X32.6Y-4.
X34.Y-5.25
X35.2Y-11.7
X36.9Y-20.7
X37.25Y-1.5
X40.5Y-19.5
X51.2Y-21.7
T2
X4.563Y-9.001
X4.563Y-14.001
T3
X8.5Y-20.
X9.Y-2.96
X9.Y-5.5
X11.04Y-20.
X19.4Y-2.2
X21.94Y-2.2
X24.48Y-2.2
X24.96Y-20.5
X27.02Y-2.2
X27.5Y-20.5
X29.56Y-2.2
X32.1Y-2.2
T4
X1.863Y-8.001
X1.863Y-15.001
T5
X4.Y-4.
X4.Y-19.
X58.Y-19.
T0
M30
