G04 #@! TF.FileFunction,Legend,Top*
%FSLAX46Y46*%
G04 Gerber Fmt 4.6, Leading zero omitted, Abs format (unit mm)*
G04 Created by KiCad (PCBNEW 4.0.2+dfsg1-stable) date Mon Jul 16 15:08:22 2018*
%MOMM*%
G01*
G04 APERTURE LIST*
%ADD10C,0.350000*%
%ADD11C,0.300000*%
%ADD12C,0.150000*%
%ADD13R,2.432000X2.432000*%
%ADD14O,2.432000X2.432000*%
%ADD15R,2.127200X2.432000*%
%ADD16O,2.127200X2.432000*%
%ADD17O,1.900000X1.900000*%
%ADD18O,2.400000X2.400000*%
%ADD19R,1.400000X3.150000*%
G04 APERTURE END LIST*
D10*
D11*
X18928571Y-16607142D02*
X18928571Y-15678571D01*
X19500000Y-16178571D01*
X19500000Y-15964285D01*
X19571429Y-15821428D01*
X19642857Y-15749999D01*
X19785714Y-15678571D01*
X20142857Y-15678571D01*
X20285714Y-15749999D01*
X20357143Y-15821428D01*
X20428571Y-15964285D01*
X20428571Y-16392857D01*
X20357143Y-16535714D01*
X20285714Y-16607142D01*
X18928571Y-15250000D02*
X20428571Y-14750000D01*
X18928571Y-14250000D01*
X18928571Y-13892857D02*
X18928571Y-12964286D01*
X19500000Y-13464286D01*
X19500000Y-13250000D01*
X19571429Y-13107143D01*
X19642857Y-13035714D01*
X19785714Y-12964286D01*
X20142857Y-12964286D01*
X20285714Y-13035714D01*
X20357143Y-13107143D01*
X20428571Y-13250000D01*
X20428571Y-13678572D01*
X20357143Y-13821429D01*
X20285714Y-13892857D01*
X21400000Y-15892857D02*
X21328571Y-16035714D01*
X21328571Y-16250000D01*
X21400000Y-16464285D01*
X21542857Y-16607143D01*
X21685714Y-16678571D01*
X21971429Y-16750000D01*
X22185714Y-16750000D01*
X22471429Y-16678571D01*
X22614286Y-16607143D01*
X22757143Y-16464285D01*
X22828571Y-16250000D01*
X22828571Y-16107143D01*
X22757143Y-15892857D01*
X22685714Y-15821428D01*
X22185714Y-15821428D01*
X22185714Y-16107143D01*
X22828571Y-15178571D02*
X21328571Y-15178571D01*
X22828571Y-14321428D01*
X21328571Y-14321428D01*
X22828571Y-13607142D02*
X21328571Y-13607142D01*
X21328571Y-13249999D01*
X21400000Y-13035714D01*
X21542857Y-12892856D01*
X21685714Y-12821428D01*
X21971429Y-12749999D01*
X22185714Y-12749999D01*
X22471429Y-12821428D01*
X22614286Y-12892856D01*
X22757143Y-13035714D01*
X22828571Y-13249999D01*
X22828571Y-13607142D01*
X25228571Y-15571428D02*
X24514286Y-16071428D01*
X25228571Y-16428571D02*
X23728571Y-16428571D01*
X23728571Y-15857143D01*
X23800000Y-15714285D01*
X23871429Y-15642857D01*
X24014286Y-15571428D01*
X24228571Y-15571428D01*
X24371429Y-15642857D01*
X24442857Y-15714285D01*
X24514286Y-15857143D01*
X24514286Y-16428571D01*
X23728571Y-15142857D02*
X23728571Y-14285714D01*
X25228571Y-14714285D02*
X23728571Y-14714285D01*
X25157143Y-13857143D02*
X25228571Y-13642857D01*
X25228571Y-13285714D01*
X25157143Y-13142857D01*
X25085714Y-13071428D01*
X24942857Y-13000000D01*
X24800000Y-13000000D01*
X24657143Y-13071428D01*
X24585714Y-13142857D01*
X24514286Y-13285714D01*
X24442857Y-13571428D01*
X24371429Y-13714286D01*
X24300000Y-13785714D01*
X24157143Y-13857143D01*
X24014286Y-13857143D01*
X23871429Y-13785714D01*
X23800000Y-13714286D01*
X23728571Y-13571428D01*
X23728571Y-13214286D01*
X23800000Y-13000000D01*
X26128571Y-16642857D02*
X26128571Y-15785714D01*
X27628571Y-16214285D02*
X26128571Y-16214285D01*
X26128571Y-15428571D02*
X27628571Y-14428571D01*
X26128571Y-14428571D02*
X27628571Y-15428571D01*
X27628571Y-13857143D02*
X26128571Y-13857143D01*
X26128571Y-13500000D01*
X26200000Y-13285715D01*
X26342857Y-13142857D01*
X26485714Y-13071429D01*
X26771429Y-13000000D01*
X26985714Y-13000000D01*
X27271429Y-13071429D01*
X27414286Y-13142857D01*
X27557143Y-13285715D01*
X27628571Y-13500000D01*
X27628571Y-13857143D01*
X30028571Y-15749999D02*
X29314286Y-16249999D01*
X30028571Y-16607142D02*
X28528571Y-16607142D01*
X28528571Y-16035714D01*
X28600000Y-15892856D01*
X28671429Y-15821428D01*
X28814286Y-15749999D01*
X29028571Y-15749999D01*
X29171429Y-15821428D01*
X29242857Y-15892856D01*
X29314286Y-16035714D01*
X29314286Y-16607142D01*
X28528571Y-15249999D02*
X30028571Y-14249999D01*
X28528571Y-14249999D02*
X30028571Y-15249999D01*
X30028571Y-13678571D02*
X28528571Y-13678571D01*
X28528571Y-13321428D01*
X28600000Y-13107143D01*
X28742857Y-12964285D01*
X28885714Y-12892857D01*
X29171429Y-12821428D01*
X29385714Y-12821428D01*
X29671429Y-12892857D01*
X29814286Y-12964285D01*
X29957143Y-13107143D01*
X30028571Y-13321428D01*
X30028571Y-13678571D01*
X32428571Y-16464285D02*
X30928571Y-16464285D01*
X30928571Y-16107142D01*
X31000000Y-15892857D01*
X31142857Y-15749999D01*
X31285714Y-15678571D01*
X31571429Y-15607142D01*
X31785714Y-15607142D01*
X32071429Y-15678571D01*
X32214286Y-15749999D01*
X32357143Y-15892857D01*
X32428571Y-16107142D01*
X32428571Y-16464285D01*
X30928571Y-15178571D02*
X30928571Y-14321428D01*
X32428571Y-14749999D02*
X30928571Y-14749999D01*
X32428571Y-12964285D02*
X31714286Y-13464285D01*
X32428571Y-13821428D02*
X30928571Y-13821428D01*
X30928571Y-13250000D01*
X31000000Y-13107142D01*
X31071429Y-13035714D01*
X31214286Y-12964285D01*
X31428571Y-12964285D01*
X31571429Y-13035714D01*
X31642857Y-13107142D01*
X31714286Y-13250000D01*
X31714286Y-13821428D01*
D12*
X7730000Y-4230000D02*
X7730000Y-1690000D01*
X7450000Y-7050000D02*
X7450000Y-5500000D01*
X7730000Y-4230000D02*
X10270000Y-4230000D01*
X10550000Y-5500000D02*
X10550000Y-7050000D01*
X10550000Y-7050000D02*
X7450000Y-7050000D01*
X10270000Y-4230000D02*
X10270000Y-1690000D01*
X10270000Y-1690000D02*
X7730000Y-1690000D01*
X9770000Y-18730000D02*
X12310000Y-18730000D01*
X6950000Y-18450000D02*
X8500000Y-18450000D01*
X9770000Y-18730000D02*
X9770000Y-21270000D01*
X8500000Y-21550000D02*
X6950000Y-21550000D01*
X6950000Y-21550000D02*
X6950000Y-18450000D01*
X9770000Y-21270000D02*
X12310000Y-21270000D01*
X12310000Y-21270000D02*
X12310000Y-18730000D01*
X33650000Y-900000D02*
X32100000Y-900000D01*
X33650000Y-2200000D02*
X33650000Y-900000D01*
X32227000Y-6391000D02*
X32227000Y-12233000D01*
X32227000Y-12233000D02*
X31973000Y-12233000D01*
X31973000Y-12233000D02*
X31973000Y-6391000D01*
X31973000Y-6391000D02*
X32100000Y-6391000D01*
X32100000Y-6391000D02*
X32100000Y-12233000D01*
X32354000Y-3724000D02*
X32354000Y-3343000D01*
X31846000Y-3724000D02*
X31846000Y-3343000D01*
X29814000Y-3724000D02*
X29814000Y-3343000D01*
X29306000Y-3724000D02*
X29306000Y-3343000D01*
X27274000Y-3724000D02*
X27274000Y-3343000D01*
X26766000Y-3724000D02*
X26766000Y-3343000D01*
X19146000Y-3724000D02*
X19146000Y-3343000D01*
X19654000Y-3724000D02*
X19654000Y-3343000D01*
X21686000Y-3724000D02*
X21686000Y-3343000D01*
X22194000Y-3724000D02*
X22194000Y-3343000D01*
X24226000Y-3724000D02*
X24226000Y-3343000D01*
X24734000Y-3724000D02*
X24734000Y-3343000D01*
X33370000Y-3724000D02*
X33370000Y-6264000D01*
X30830000Y-3724000D02*
X30830000Y-6264000D01*
X30830000Y-3724000D02*
X28290000Y-3724000D01*
X28290000Y-3724000D02*
X28290000Y-6264000D01*
X29814000Y-6264000D02*
X29814000Y-12360000D01*
X29814000Y-12360000D02*
X29306000Y-12360000D01*
X29306000Y-12360000D02*
X29306000Y-6264000D01*
X28290000Y-6264000D02*
X30830000Y-6264000D01*
X30830000Y-6264000D02*
X33370000Y-6264000D01*
X31846000Y-12360000D02*
X31846000Y-6264000D01*
X32354000Y-12360000D02*
X31846000Y-12360000D01*
X32354000Y-6264000D02*
X32354000Y-12360000D01*
X30830000Y-3724000D02*
X30830000Y-6264000D01*
X33370000Y-3724000D02*
X30830000Y-3724000D01*
X23210000Y-3724000D02*
X23210000Y-6264000D01*
X23210000Y-3724000D02*
X20670000Y-3724000D01*
X20670000Y-3724000D02*
X20670000Y-6264000D01*
X22194000Y-6264000D02*
X22194000Y-12360000D01*
X22194000Y-12360000D02*
X21686000Y-12360000D01*
X21686000Y-12360000D02*
X21686000Y-6264000D01*
X20670000Y-6264000D02*
X23210000Y-6264000D01*
X18130000Y-6264000D02*
X20670000Y-6264000D01*
X19146000Y-12360000D02*
X19146000Y-6264000D01*
X19654000Y-12360000D02*
X19146000Y-12360000D01*
X19654000Y-6264000D02*
X19654000Y-12360000D01*
X18130000Y-3724000D02*
X18130000Y-6264000D01*
X20670000Y-3724000D02*
X18130000Y-3724000D01*
X20670000Y-3724000D02*
X20670000Y-6264000D01*
X25750000Y-3724000D02*
X25750000Y-6264000D01*
X25750000Y-3724000D02*
X23210000Y-3724000D01*
X23210000Y-3724000D02*
X23210000Y-6264000D01*
X24734000Y-6264000D02*
X24734000Y-12360000D01*
X24734000Y-12360000D02*
X24226000Y-12360000D01*
X24226000Y-12360000D02*
X24226000Y-6264000D01*
X23210000Y-6264000D02*
X25750000Y-6264000D01*
X25750000Y-6264000D02*
X28290000Y-6264000D01*
X26766000Y-12360000D02*
X26766000Y-6264000D01*
X27274000Y-12360000D02*
X26766000Y-12360000D01*
X27274000Y-6264000D02*
X27274000Y-12360000D01*
X25750000Y-3724000D02*
X25750000Y-6264000D01*
X28290000Y-3724000D02*
X25750000Y-3724000D01*
X28290000Y-3724000D02*
X28290000Y-6264000D01*
X26230000Y-21770000D02*
X23690000Y-21770000D01*
X29050000Y-22050000D02*
X27500000Y-22050000D01*
X26230000Y-21770000D02*
X26230000Y-19230000D01*
X27500000Y-18950000D02*
X29050000Y-18950000D01*
X29050000Y-18950000D02*
X29050000Y-22050000D01*
X26230000Y-19230000D02*
X23690000Y-19230000D01*
X23690000Y-19230000D02*
X23690000Y-21770000D01*
X8000000Y-8500000D02*
X8200000Y-8500000D01*
X14000000Y-8500000D02*
X13800000Y-8500000D01*
X14000000Y-14500000D02*
X13800000Y-14500000D01*
X8000000Y-14500000D02*
X8200000Y-14500000D01*
X9800000Y-14500000D02*
X12200000Y-14500000D01*
X9800000Y-8500000D02*
X12200000Y-8500000D01*
X8000000Y-8500000D02*
X8000000Y-14500000D01*
X14000000Y-14500000D02*
X14000000Y-8500000D01*
X12700000Y-11500000D02*
G75*
G03X12700000Y-11500000I-1700000J0D01*
G01*
X54000000Y-14500000D02*
X53800000Y-14500000D01*
X48000000Y-14500000D02*
X48200000Y-14500000D01*
X48000000Y-8500000D02*
X48200000Y-8500000D01*
X54000000Y-8500000D02*
X53800000Y-8500000D01*
X52200000Y-8500000D02*
X49800000Y-8500000D01*
X52200000Y-14500000D02*
X49800000Y-14500000D01*
X54000000Y-14500000D02*
X54000000Y-8500000D01*
X48000000Y-8500000D02*
X48000000Y-14500000D01*
X52700000Y-11500000D02*
G75*
G03X52700000Y-11500000I-1700000J0D01*
G01*
X6428571Y-6535714D02*
X6476190Y-6392857D01*
X6523810Y-6345238D01*
X6619048Y-6297619D01*
X6761905Y-6297619D01*
X6857143Y-6345238D01*
X6904762Y-6392857D01*
X6952381Y-6488095D01*
X6952381Y-6869048D01*
X5952381Y-6869048D01*
X5952381Y-6535714D01*
X6000000Y-6440476D01*
X6047619Y-6392857D01*
X6142857Y-6345238D01*
X6238095Y-6345238D01*
X6333333Y-6392857D01*
X6380952Y-6440476D01*
X6428571Y-6535714D01*
X6428571Y-6869048D01*
X5952381Y-6011905D02*
X5952381Y-5440476D01*
X6952381Y-5726191D02*
X5952381Y-5726191D01*
X6952381Y-4583333D02*
X6952381Y-5154762D01*
X6952381Y-4869048D02*
X5952381Y-4869048D01*
X6095238Y-4964286D01*
X6190476Y-5059524D01*
X6238095Y-5154762D01*
X13452381Y-20988095D02*
X12452381Y-20988095D01*
X12452381Y-20607142D01*
X12500000Y-20511904D01*
X12547619Y-20464285D01*
X12642857Y-20416666D01*
X12785714Y-20416666D01*
X12880952Y-20464285D01*
X12928571Y-20511904D01*
X12976190Y-20607142D01*
X12976190Y-20988095D01*
X13452381Y-19464285D02*
X13452381Y-20035714D01*
X13452381Y-19750000D02*
X12452381Y-19750000D01*
X12595238Y-19845238D01*
X12690476Y-19940476D01*
X12738095Y-20035714D01*
X31511905Y-7702381D02*
X31511905Y-6702381D01*
X31892858Y-6702381D01*
X31988096Y-6750000D01*
X32035715Y-6797619D01*
X32083334Y-6892857D01*
X32083334Y-7035714D01*
X32035715Y-7130952D01*
X31988096Y-7178571D01*
X31892858Y-7226190D01*
X31511905Y-7226190D01*
X32464286Y-6797619D02*
X32511905Y-6750000D01*
X32607143Y-6702381D01*
X32845239Y-6702381D01*
X32940477Y-6750000D01*
X32988096Y-6797619D01*
X33035715Y-6892857D01*
X33035715Y-6988095D01*
X32988096Y-7130952D01*
X32416667Y-7702381D01*
X33035715Y-7702381D01*
X22904762Y-21761905D02*
X22952381Y-21619048D01*
X22952381Y-21380952D01*
X22904762Y-21285714D01*
X22857143Y-21238095D01*
X22761905Y-21190476D01*
X22666667Y-21190476D01*
X22571429Y-21238095D01*
X22523810Y-21285714D01*
X22476190Y-21380952D01*
X22428571Y-21571429D01*
X22380952Y-21666667D01*
X22333333Y-21714286D01*
X22238095Y-21761905D01*
X22142857Y-21761905D01*
X22047619Y-21714286D01*
X22000000Y-21666667D01*
X21952381Y-21571429D01*
X21952381Y-21333333D01*
X22000000Y-21190476D01*
X22952381Y-20761905D02*
X21952381Y-20761905D01*
X21952381Y-20380952D01*
X22000000Y-20285714D01*
X22047619Y-20238095D01*
X22142857Y-20190476D01*
X22285714Y-20190476D01*
X22380952Y-20238095D01*
X22428571Y-20285714D01*
X22476190Y-20380952D01*
X22476190Y-20761905D01*
X22952381Y-19238095D02*
X22952381Y-19809524D01*
X22952381Y-19523810D02*
X21952381Y-19523810D01*
X22095238Y-19619048D01*
X22190476Y-19714286D01*
X22238095Y-19809524D01*
X15154762Y-12833333D02*
X15202381Y-12690476D01*
X15202381Y-12452380D01*
X15154762Y-12357142D01*
X15107143Y-12309523D01*
X15011905Y-12261904D01*
X14916667Y-12261904D01*
X14821429Y-12309523D01*
X14773810Y-12357142D01*
X14726190Y-12452380D01*
X14678571Y-12642857D01*
X14630952Y-12738095D01*
X14583333Y-12785714D01*
X14488095Y-12833333D01*
X14392857Y-12833333D01*
X14297619Y-12785714D01*
X14250000Y-12738095D01*
X14202381Y-12642857D01*
X14202381Y-12404761D01*
X14250000Y-12261904D01*
X14202381Y-11928571D02*
X15202381Y-11690476D01*
X14488095Y-11499999D01*
X15202381Y-11309523D01*
X14202381Y-11071428D01*
X15202381Y-10166666D02*
X15202381Y-10738095D01*
X15202381Y-10452381D02*
X14202381Y-10452381D01*
X14345238Y-10547619D01*
X14440476Y-10642857D01*
X14488095Y-10738095D01*
X55404762Y-12833333D02*
X55452381Y-12690476D01*
X55452381Y-12452380D01*
X55404762Y-12357142D01*
X55357143Y-12309523D01*
X55261905Y-12261904D01*
X55166667Y-12261904D01*
X55071429Y-12309523D01*
X55023810Y-12357142D01*
X54976190Y-12452380D01*
X54928571Y-12642857D01*
X54880952Y-12738095D01*
X54833333Y-12785714D01*
X54738095Y-12833333D01*
X54642857Y-12833333D01*
X54547619Y-12785714D01*
X54500000Y-12738095D01*
X54452381Y-12642857D01*
X54452381Y-12404761D01*
X54500000Y-12261904D01*
X54452381Y-11928571D02*
X55452381Y-11690476D01*
X54738095Y-11499999D01*
X55452381Y-11309523D01*
X54452381Y-11071428D01*
X54547619Y-10738095D02*
X54500000Y-10690476D01*
X54452381Y-10595238D01*
X54452381Y-10357142D01*
X54500000Y-10261904D01*
X54547619Y-10214285D01*
X54642857Y-10166666D01*
X54738095Y-10166666D01*
X54880952Y-10214285D01*
X55452381Y-10785714D01*
X55452381Y-10166666D01*
%LPC*%
D13*
X9000000Y-5500000D03*
D14*
X9000000Y-2960000D03*
D13*
X8500000Y-20000000D03*
D14*
X11040000Y-20000000D03*
D15*
X32100000Y-2200000D03*
D16*
X29560000Y-2200000D03*
X27020000Y-2200000D03*
X24480000Y-2200000D03*
X21940000Y-2200000D03*
X19400000Y-2200000D03*
D17*
X4562540Y-14000900D03*
X4562540Y-9000900D03*
D18*
X1862540Y-15000900D03*
X1862540Y-8000900D03*
D13*
X27500000Y-20500000D03*
D14*
X24960000Y-20500000D03*
D19*
X9000000Y-8625000D03*
X9000000Y-14375000D03*
X13000000Y-14375000D03*
X13000000Y-8625000D03*
X53000000Y-14375000D03*
X53000000Y-8625000D03*
X49000000Y-8625000D03*
X49000000Y-14375000D03*
M02*
