G04 #@! TF.FileFunction,Copper,L2,Bot,Signal*
%FSLAX46Y46*%
G04 Gerber Fmt 4.6, Leading zero omitted, Abs format (unit mm)*
G04 Created by KiCad (PCBNEW 4.0.2+dfsg1-stable) date Mon Jul 16 15:08:22 2018*
%MOMM*%
G01*
G04 APERTURE LIST*
%ADD10C,0.350000*%
%ADD11C,0.300000*%
%ADD12R,1.100000X2.500000*%
%ADD13R,2.032000X2.032000*%
%ADD14O,2.032000X2.032000*%
%ADD15R,0.750000X0.800000*%
%ADD16R,1.000000X1.250000*%
%ADD17R,0.800000X0.750000*%
%ADD18R,1.250000X1.000000*%
%ADD19R,1.198880X1.198880*%
%ADD20R,1.727200X2.032000*%
%ADD21O,1.727200X2.032000*%
%ADD22R,1.350000X0.300000*%
%ADD23O,1.500000X1.500000*%
%ADD24O,2.000000X2.000000*%
%ADD25R,0.500000X0.900000*%
%ADD26R,0.900000X0.500000*%
%ADD27R,1.500000X0.600000*%
%ADD28R,0.650000X1.060000*%
%ADD29C,0.800000*%
%ADD30C,0.500000*%
%ADD31C,0.254000*%
%ADD32C,0.350000*%
G04 APERTURE END LIST*
D10*
D11*
X19071428Y-20321429D02*
X18999999Y-20250000D01*
X18857142Y-20178571D01*
X18499999Y-20178571D01*
X18357142Y-20250000D01*
X18285713Y-20321429D01*
X18214285Y-20464286D01*
X18214285Y-20607143D01*
X18285713Y-20821429D01*
X19142856Y-21678571D01*
X18214285Y-21678571D01*
X17285714Y-20178571D02*
X17142857Y-20178571D01*
X17000000Y-20250000D01*
X16928571Y-20321429D01*
X16857142Y-20464286D01*
X16785714Y-20750000D01*
X16785714Y-21107143D01*
X16857142Y-21392857D01*
X16928571Y-21535714D01*
X17000000Y-21607143D01*
X17142857Y-21678571D01*
X17285714Y-21678571D01*
X17428571Y-21607143D01*
X17500000Y-21535714D01*
X17571428Y-21392857D01*
X17642857Y-21107143D01*
X17642857Y-20750000D01*
X17571428Y-20464286D01*
X17500000Y-20321429D01*
X17428571Y-20250000D01*
X17285714Y-20178571D01*
X15357143Y-21678571D02*
X16214286Y-21678571D01*
X15785714Y-21678571D02*
X15785714Y-20178571D01*
X15928571Y-20392857D01*
X16071429Y-20535714D01*
X16214286Y-20607143D01*
X14500000Y-20821429D02*
X14642858Y-20750000D01*
X14714286Y-20678571D01*
X14785715Y-20535714D01*
X14785715Y-20464286D01*
X14714286Y-20321429D01*
X14642858Y-20250000D01*
X14500000Y-20178571D01*
X14214286Y-20178571D01*
X14071429Y-20250000D01*
X14000000Y-20321429D01*
X13928572Y-20464286D01*
X13928572Y-20535714D01*
X14000000Y-20678571D01*
X14071429Y-20750000D01*
X14214286Y-20821429D01*
X14500000Y-20821429D01*
X14642858Y-20892857D01*
X14714286Y-20964286D01*
X14785715Y-21107143D01*
X14785715Y-21392857D01*
X14714286Y-21535714D01*
X14642858Y-21607143D01*
X14500000Y-21678571D01*
X14214286Y-21678571D01*
X14071429Y-21607143D01*
X14000000Y-21535714D01*
X13928572Y-21392857D01*
X13928572Y-21107143D01*
X14000000Y-20964286D01*
X14071429Y-20892857D01*
X14214286Y-20821429D01*
X32678571Y-20178571D02*
X32678571Y-21250000D01*
X32749999Y-21464286D01*
X32892856Y-21607143D01*
X33107142Y-21678571D01*
X33249999Y-21678571D01*
X31964285Y-21678571D02*
X31964285Y-20178571D01*
X31392857Y-20178571D01*
X31249999Y-20250000D01*
X31178571Y-20321429D01*
X31107142Y-20464286D01*
X31107142Y-20678571D01*
X31178571Y-20821429D01*
X31249999Y-20892857D01*
X31392857Y-20964286D01*
X31964285Y-20964286D01*
X30535714Y-21250000D02*
X29821428Y-21250000D01*
X30678571Y-21678571D02*
X30178571Y-20178571D01*
X29678571Y-21678571D01*
D12*
X52700000Y-17500000D03*
X50700000Y-17500000D03*
X48700000Y-17500000D03*
X46700000Y-17500000D03*
X44700000Y-17500000D03*
X42700000Y-17500000D03*
X40700000Y-17500000D03*
X38700000Y-17500000D03*
X38700000Y-2100000D03*
X40700000Y-2100000D03*
X42700000Y-2100000D03*
X44700000Y-2100000D03*
X46700000Y-2100000D03*
X48700000Y-2100000D03*
X50700000Y-2100000D03*
X52700000Y-2100000D03*
D13*
X9000000Y-5500000D03*
D14*
X9000000Y-2960000D03*
D15*
X31500000Y-11750000D03*
X31500000Y-13250000D03*
D16*
X10000000Y-15000000D03*
X8000000Y-15000000D03*
D17*
X13250000Y-17000000D03*
X11750000Y-17000000D03*
D15*
X31500000Y-16250000D03*
X31500000Y-14750000D03*
D18*
X17500000Y-13000000D03*
X17500000Y-15000000D03*
D15*
X21500000Y-10250000D03*
X21500000Y-11750000D03*
D16*
X17000000Y-2000000D03*
X15000000Y-2000000D03*
X17000000Y-8000000D03*
X15000000Y-8000000D03*
D19*
X10049020Y-10250000D03*
X7950980Y-10250000D03*
X10049020Y-12750000D03*
X7950980Y-12750000D03*
D13*
X8500000Y-20000000D03*
D14*
X11040000Y-20000000D03*
D20*
X32100000Y-2200000D03*
D21*
X29560000Y-2200000D03*
X27020000Y-2200000D03*
X24480000Y-2200000D03*
X21940000Y-2200000D03*
X19400000Y-2200000D03*
D22*
X4562540Y-12800900D03*
X4562540Y-12150900D03*
X4562540Y-11500900D03*
X4562540Y-10850900D03*
X4562540Y-10200900D03*
D23*
X4562540Y-14000900D03*
X4562540Y-9000900D03*
D24*
X1862540Y-15000900D03*
X1862540Y-8000900D03*
D25*
X11750000Y-15000000D03*
X13250000Y-15000000D03*
X10250000Y-17000000D03*
X8750000Y-17000000D03*
X34750000Y-15250000D03*
X33250000Y-15250000D03*
X49750000Y-20250000D03*
X51250000Y-20250000D03*
D26*
X21500000Y-13250000D03*
X21500000Y-14750000D03*
X19500000Y-14750000D03*
X19500000Y-13250000D03*
D25*
X34750000Y-13500000D03*
X33250000Y-13500000D03*
D26*
X19500000Y-11750000D03*
X19500000Y-10250000D03*
X19500000Y-16250000D03*
X19500000Y-17750000D03*
X21500000Y-16250000D03*
X21500000Y-17750000D03*
D25*
X34450000Y-3200000D03*
X35950000Y-3200000D03*
X34450000Y-1500000D03*
X35950000Y-1500000D03*
X38750000Y-20250000D03*
X40250000Y-20250000D03*
X41500000Y-20250000D03*
X43000000Y-20250000D03*
X44250000Y-20250000D03*
X45750000Y-20250000D03*
X47000000Y-20250000D03*
X48500000Y-20250000D03*
X11750000Y-1750000D03*
X13250000Y-1750000D03*
X9000000Y-8250000D03*
X10500000Y-8250000D03*
X12000000Y-8250000D03*
X13500000Y-8250000D03*
D13*
X27500000Y-20500000D03*
D14*
X24960000Y-20500000D03*
D27*
X23800000Y-17810000D03*
X23800000Y-16540000D03*
X23800000Y-15270000D03*
X23800000Y-14000000D03*
X23800000Y-12730000D03*
X23800000Y-11460000D03*
X23800000Y-10190000D03*
X29200000Y-10190000D03*
X29200000Y-11460000D03*
X29200000Y-12730000D03*
X29200000Y-14000000D03*
X29200000Y-15270000D03*
X29200000Y-16540000D03*
X29200000Y-17810000D03*
D28*
X15050000Y-3900000D03*
X16000000Y-3900000D03*
X16950000Y-3900000D03*
X16950000Y-6100000D03*
X15050000Y-6100000D03*
X11550000Y-3900000D03*
X12500000Y-3900000D03*
X13450000Y-3900000D03*
X13450000Y-6100000D03*
X11550000Y-6100000D03*
D25*
X33250000Y-11750000D03*
X34750000Y-11750000D03*
D18*
X35500000Y-18500000D03*
X35500000Y-20500000D03*
X15400000Y-13000000D03*
X15400000Y-15000000D03*
D29*
X10400000Y-5500000D03*
X37250000Y-1500000D03*
X30500000Y-13600000D03*
X36900000Y-20700000D03*
X21900000Y-3800000D03*
X10500000Y-2000000D03*
X18250000Y-7500000D03*
X17500000Y-16750000D03*
X6750000Y-12750000D03*
X6500000Y-10250000D03*
X22500000Y-10100000D03*
X23400000Y-6800000D03*
X51200000Y-21700000D03*
X35200000Y-11700000D03*
X32600000Y-4000000D03*
X28250000Y-3750000D03*
X34000000Y-5250000D03*
X20300000Y-7900000D03*
X20900000Y-6300000D03*
X18300000Y-6300000D03*
X40500000Y-19500000D03*
D11*
X10400000Y-5500000D02*
X9950000Y-5050000D01*
X9950000Y-5050000D02*
X10000000Y-5000000D01*
X10000000Y-5000000D02*
X9000000Y-5500000D01*
X9000000Y-5500000D02*
X9500000Y-5500000D01*
X9500000Y-5500000D02*
X10000000Y-5000000D01*
X10000000Y-5000000D02*
X13000000Y-5000000D01*
X13000000Y-5000000D02*
X13450000Y-4550000D01*
X13450000Y-4550000D02*
X13450000Y-3900000D01*
X13450000Y-3900000D02*
X14300000Y-3900000D01*
X14300000Y-3900000D02*
X15050000Y-3900000D01*
X15000000Y-2000000D02*
X15000000Y-3850000D01*
X15000000Y-3850000D02*
X15050000Y-3900000D01*
X40700000Y-2800000D02*
X38700000Y-2800000D01*
X38700000Y-2800000D02*
X38300000Y-2800000D01*
X38300000Y-2800000D02*
X37250000Y-1750000D01*
X37250000Y-1750000D02*
X37250000Y-1500000D01*
X19500000Y-14750000D02*
X19250000Y-15000000D01*
X19250000Y-15000000D02*
X17500000Y-15000000D01*
X15400000Y-15000000D02*
X17500000Y-15000000D01*
X9000000Y-8250000D02*
X7650000Y-8250000D01*
X7340000Y-2960000D02*
X9000000Y-2960000D01*
X7100000Y-3200000D02*
X7340000Y-2960000D01*
X7100000Y-7700000D02*
X7100000Y-3200000D01*
X7650000Y-8250000D02*
X7100000Y-7700000D01*
X30500000Y-14000000D02*
X30500000Y-13600000D01*
X36900000Y-21500000D02*
X36900000Y-20700000D01*
X21940000Y-2200000D02*
X21940000Y-3760000D01*
X21940000Y-3760000D02*
X21900000Y-3800000D01*
X12500000Y-3900000D02*
X12500000Y-3100000D01*
X16100000Y-800000D02*
X17000000Y-1700000D01*
X14200000Y-800000D02*
X16100000Y-800000D01*
X14000000Y-1000000D02*
X14200000Y-800000D01*
X14000000Y-2600000D02*
X14000000Y-1000000D01*
X13800000Y-2800000D02*
X14000000Y-2600000D01*
X12800000Y-2800000D02*
X13800000Y-2800000D01*
X12500000Y-3100000D02*
X12800000Y-2800000D01*
X17000000Y-1700000D02*
X17000000Y-2000000D01*
X9000000Y-2960000D02*
X9540000Y-2960000D01*
X9540000Y-2960000D02*
X10500000Y-2000000D01*
X17000000Y-8000000D02*
X17750000Y-8000000D01*
X17750000Y-8000000D02*
X18250000Y-7500000D01*
X17500000Y-15500000D02*
X17500000Y-16750000D01*
X4562540Y-14000900D02*
X5499100Y-14000900D01*
X6750000Y-12750000D02*
X7950980Y-12750000D01*
X5499100Y-14000900D02*
X6750000Y-12750000D01*
X6250000Y-10200900D02*
X6450900Y-10200900D01*
X6450900Y-10200900D02*
X6500000Y-10250000D01*
D30*
X17000000Y-8000000D02*
X16000000Y-7000000D01*
X16000000Y-7000000D02*
X16000000Y-3900000D01*
D11*
X7950980Y-12750000D02*
X7950980Y-14950980D01*
X7950980Y-14950980D02*
X8000000Y-15000000D01*
X5950900Y-10200900D02*
X6250000Y-10200900D01*
X4562540Y-10200900D02*
X5950900Y-10200900D01*
X6250000Y-10200900D02*
X6250000Y-10250000D01*
X6250000Y-10500000D02*
X6250000Y-10250000D01*
X6250000Y-10250000D02*
X6250000Y-9650000D01*
X6250000Y-10500000D02*
X6250000Y-10750000D01*
X6250000Y-10750000D02*
X6149100Y-10850900D01*
X4562540Y-10850900D02*
X6149100Y-10850900D01*
X5600900Y-9000900D02*
X4562540Y-9000900D01*
X6250000Y-9650000D02*
X5600900Y-9000900D01*
X1862540Y-8000900D02*
X1862540Y-15000900D01*
X1862540Y-15000900D02*
X3562540Y-15000900D01*
X3562540Y-15000900D02*
X4562540Y-14000900D01*
X1862540Y-8000900D02*
X3562540Y-8000900D01*
X3562540Y-8000900D02*
X4562540Y-9000900D01*
X38750000Y-20250000D02*
X38750000Y-21500000D01*
X41500000Y-20250000D02*
X41500000Y-21000000D01*
X36500000Y-21500000D02*
X35500000Y-20500000D01*
X41000000Y-21500000D02*
X38750000Y-21500000D01*
X38750000Y-21500000D02*
X36900000Y-21500000D01*
X36900000Y-21500000D02*
X36500000Y-21500000D01*
X41500000Y-21000000D02*
X41000000Y-21500000D01*
X31500000Y-14750000D02*
X31500000Y-13250000D01*
X29200000Y-14000000D02*
X30500000Y-14000000D01*
X30500000Y-14000000D02*
X31250000Y-14000000D01*
X31500000Y-13750000D02*
X31500000Y-13250000D01*
X31250000Y-14000000D02*
X31500000Y-13750000D01*
X8000000Y-15000000D02*
X8000000Y-19500000D01*
X8000000Y-19500000D02*
X8500000Y-20000000D01*
X16000000Y-3900000D02*
X16000000Y-3000000D01*
X16000000Y-3000000D02*
X17000000Y-2000000D01*
X29200000Y-12730000D02*
X30520000Y-12730000D01*
X30520000Y-12730000D02*
X31500000Y-11750000D01*
X33250000Y-11750000D02*
X31500000Y-11750000D01*
X13250000Y-17000000D02*
X14250000Y-16000000D01*
X14800000Y-11750000D02*
X19500000Y-11750000D01*
X14250000Y-12300000D02*
X14800000Y-11750000D01*
X14250000Y-16000000D02*
X14250000Y-12300000D01*
X21500000Y-11750000D02*
X21790000Y-11460000D01*
X21790000Y-11460000D02*
X23800000Y-11460000D01*
X19500000Y-11750000D02*
X20250000Y-11750000D01*
X20250000Y-11750000D02*
X21500000Y-11750000D01*
X11040000Y-20000000D02*
X11040000Y-17000000D01*
X11040000Y-17000000D02*
X11000000Y-17000000D01*
X10250000Y-17000000D02*
X11000000Y-17000000D01*
X11000000Y-17000000D02*
X11750000Y-17000000D01*
X31500000Y-16250000D02*
X32500000Y-15250000D01*
X32500000Y-15250000D02*
X33250000Y-15250000D01*
X29200000Y-15270000D02*
X30520000Y-15270000D01*
X30520000Y-15270000D02*
X31500000Y-16250000D01*
X33250000Y-15250000D02*
X33250000Y-15000000D01*
X33250000Y-15000000D02*
X34750000Y-13500000D01*
X23800000Y-12730000D02*
X22770000Y-12730000D01*
X22250000Y-13250000D02*
X21500000Y-13250000D01*
X22770000Y-12730000D02*
X22250000Y-13250000D01*
X19500000Y-13250000D02*
X21500000Y-13250000D01*
X17750000Y-13250000D02*
X19500000Y-13250000D01*
X33051232Y-7360008D02*
X32821218Y-7129994D01*
X22500000Y-10100000D02*
X22500000Y-10250000D01*
X23729994Y-7129994D02*
X23400000Y-6800000D01*
X32821218Y-7129994D02*
X23729994Y-7129994D01*
X22500000Y-10250000D02*
X22500000Y-10300000D01*
X22500000Y-10300000D02*
X22500000Y-10250000D01*
X49110008Y-7360008D02*
X51025620Y-7360008D01*
X52109998Y-13690002D02*
X50700000Y-15100000D01*
X52109998Y-8444386D02*
X52109998Y-13690002D01*
X51025620Y-7360008D02*
X52109998Y-8444386D01*
X35139992Y-7360008D02*
X33051232Y-7360008D01*
X49110008Y-7360008D02*
X35139992Y-7360008D01*
X50700000Y-16800000D02*
X50700000Y-15100000D01*
X21500000Y-10250000D02*
X19500000Y-10250000D01*
X23800000Y-10190000D02*
X23740000Y-10250000D01*
X23740000Y-10250000D02*
X22500000Y-10250000D01*
X22500000Y-10250000D02*
X21500000Y-10250000D01*
X50900000Y-21400000D02*
X50900000Y-21350000D01*
X50875000Y-21375000D02*
X50900000Y-21400000D01*
X51200000Y-21700000D02*
X50875000Y-21375000D01*
D30*
X30100000Y-9000000D02*
X30200000Y-9000000D01*
X30200000Y-9000000D02*
X30700000Y-9500000D01*
X26100000Y-9000000D02*
X30100000Y-9000000D01*
X30700000Y-9500000D02*
X31100000Y-9900000D01*
X35050000Y-9900000D02*
X36250000Y-11100000D01*
X36250000Y-11750000D02*
X36250000Y-17000000D01*
X36250000Y-11100000D02*
X36250000Y-11750000D01*
X31100000Y-9900000D02*
X35050000Y-9900000D01*
D11*
X19400000Y-2200000D02*
X19300000Y-2300000D01*
X19300000Y-7200000D02*
X19400000Y-7300000D01*
X19300000Y-2300000D02*
X19300000Y-7200000D01*
X19400000Y-7300000D02*
X19400000Y-9000000D01*
X19400000Y-9000000D02*
X19400000Y-8900000D01*
X19400000Y-8900000D02*
X19400000Y-9000000D01*
X23800000Y-14000000D02*
X25500000Y-14000000D01*
X26100000Y-13400000D02*
X26100000Y-9000000D01*
X25500000Y-14000000D02*
X26100000Y-13400000D01*
D30*
X15500000Y-9500000D02*
X17900000Y-9500000D01*
X15500000Y-9500000D02*
X15000000Y-9000000D01*
X15000000Y-8000000D02*
X15000000Y-9000000D01*
X18400000Y-9000000D02*
X19400000Y-9000000D01*
X17900000Y-9500000D02*
X18400000Y-9000000D01*
X19400000Y-9000000D02*
X26100000Y-9000000D01*
D11*
X21500000Y-14750000D02*
X21500000Y-14000000D01*
X23800000Y-14000000D02*
X21500000Y-14000000D01*
X21500000Y-14000000D02*
X16400000Y-14000000D01*
X16400000Y-14000000D02*
X15400000Y-13000000D01*
X19400000Y-2200000D02*
X20900000Y-700000D01*
X33900000Y-700000D02*
X34450000Y-1250000D01*
X20900000Y-700000D02*
X33900000Y-700000D01*
X34450000Y-1250000D02*
X34450000Y-1500000D01*
X34450000Y-3200000D02*
X34450000Y-1500000D01*
X21750000Y-14750000D02*
X21500000Y-14750000D01*
X13250000Y-15000000D02*
X13250000Y-8500000D01*
X13250000Y-8500000D02*
X13500000Y-8250000D01*
D30*
X36250000Y-17000000D02*
X36250000Y-17750000D01*
X36250000Y-17750000D02*
X35500000Y-18500000D01*
X36450000Y-16800000D02*
X38700000Y-16800000D01*
X36250000Y-17000000D02*
X36450000Y-16800000D01*
D11*
X34250000Y-18500000D02*
X35500000Y-18500000D01*
X34000000Y-18750000D02*
X34250000Y-18500000D01*
X34000000Y-21500000D02*
X34000000Y-18750000D01*
X34590002Y-22090002D02*
X34000000Y-21500000D01*
X50159998Y-22090002D02*
X34590002Y-22090002D01*
X50900000Y-21350000D02*
X50159998Y-22090002D01*
X51250000Y-20250000D02*
X51250000Y-21000000D01*
X51250000Y-21000000D02*
X50900000Y-21350000D01*
X13500000Y-8250000D02*
X14750000Y-8250000D01*
X14750000Y-8250000D02*
X15000000Y-8000000D01*
D30*
X15050000Y-6100000D02*
X15050000Y-7950000D01*
D11*
X15050000Y-7950000D02*
X15000000Y-8000000D01*
X4562540Y-12800900D02*
X5449100Y-12800900D01*
X8799020Y-11500000D02*
X10049020Y-10250000D01*
X6750000Y-11500000D02*
X8799020Y-11500000D01*
X5449100Y-12800900D02*
X6750000Y-11500000D01*
X10049020Y-10250000D02*
X10250000Y-10250000D01*
X10250000Y-10250000D02*
X11250000Y-9250000D01*
X11250000Y-9250000D02*
X11250000Y-7500000D01*
X11250000Y-7500000D02*
X11500000Y-7250000D01*
X11500000Y-7250000D02*
X12300000Y-7250000D01*
X12300000Y-7250000D02*
X13450000Y-6100000D01*
X13250000Y-1750000D02*
X13250000Y-1150000D01*
X7700000Y-800000D02*
X6400000Y-2100000D01*
X12900000Y-800000D02*
X7700000Y-800000D01*
X13250000Y-1150000D02*
X12900000Y-800000D01*
X13250000Y-2000000D02*
X13250000Y-1750000D01*
X6400000Y-2100000D02*
X6400000Y-8699020D01*
X6400000Y-8699020D02*
X7950980Y-10250000D01*
X10049020Y-12750000D02*
X10049020Y-12700980D01*
X10049020Y-12700980D02*
X12000000Y-10750000D01*
X12000000Y-10750000D02*
X12000000Y-8250000D01*
X42500000Y-5000000D02*
X43700000Y-5000000D01*
X36000000Y-5000000D02*
X42500000Y-5000000D01*
X44700000Y-4000000D02*
X44700000Y-2800000D01*
X43700000Y-5000000D02*
X44700000Y-4000000D01*
X35950000Y-3200000D02*
X35950000Y-5000000D01*
X35950000Y-5000000D02*
X36000000Y-5000000D01*
X34100000Y-4200000D02*
X32100000Y-2200000D01*
X34200000Y-4200000D02*
X34100000Y-4200000D01*
X35000000Y-5000000D02*
X34200000Y-4200000D01*
X36000000Y-5000000D02*
X35000000Y-5000000D01*
X52700000Y-2800000D02*
X52700000Y-4550000D01*
X51069996Y-6180004D02*
X49319996Y-6180004D01*
X52700000Y-4550000D02*
X51069996Y-6180004D01*
X33540004Y-6180004D02*
X29560000Y-2200000D01*
X49319996Y-6180004D02*
X33540004Y-6180004D01*
X29560000Y-2200000D02*
X29560000Y-2310000D01*
X34750000Y-11750000D02*
X35150000Y-11750000D01*
X35150000Y-11750000D02*
X35200000Y-11700000D01*
X34000000Y-5250000D02*
X32750000Y-4000000D01*
X32750000Y-4000000D02*
X32600000Y-4000000D01*
X28250000Y-3430000D02*
X27020000Y-2200000D01*
X28250000Y-3750000D02*
X28250000Y-3430000D01*
X50700000Y-2800000D02*
X50700000Y-4390002D01*
X47909998Y-5590002D02*
X34340002Y-5590002D01*
X34340002Y-5590002D02*
X34000000Y-5250000D01*
X50700000Y-4390002D02*
X49500000Y-5590002D01*
X49500000Y-5590002D02*
X47909998Y-5590002D01*
X34750000Y-15250000D02*
X35500000Y-14500000D01*
X35500000Y-12500000D02*
X34750000Y-11750000D01*
X35500000Y-14500000D02*
X35500000Y-12500000D01*
X24480000Y-2200000D02*
X27030000Y-4750000D01*
X52700000Y-8200000D02*
X52700000Y-16800000D01*
X51270006Y-6770006D02*
X52700000Y-8200000D01*
X33295618Y-6770006D02*
X51270006Y-6770006D01*
X31275612Y-4750000D02*
X33295618Y-6770006D01*
X27030000Y-4750000D02*
X31275612Y-4750000D01*
X49750000Y-20250000D02*
X49750000Y-19250000D01*
X49750000Y-19250000D02*
X48700000Y-18200000D01*
X48700000Y-18200000D02*
X48700000Y-16800000D01*
X29200000Y-11460000D02*
X27790000Y-11460000D01*
X25980000Y-15270000D02*
X23800000Y-15270000D01*
X27250000Y-14000000D02*
X25980000Y-15270000D01*
X27250000Y-12000000D02*
X27250000Y-14000000D01*
X27790000Y-11460000D02*
X27250000Y-12000000D01*
X29200000Y-11460000D02*
X28790000Y-11460000D01*
X29200000Y-11460000D02*
X30040000Y-11460000D01*
X30040000Y-11460000D02*
X30750000Y-10750000D01*
X33250000Y-13500000D02*
X34000000Y-12750000D01*
X30190000Y-10190000D02*
X29200000Y-10190000D01*
X30750000Y-10750000D02*
X30190000Y-10190000D01*
X33750000Y-10750000D02*
X30750000Y-10750000D01*
X34000000Y-11000000D02*
X33750000Y-10750000D01*
X34000000Y-12750000D02*
X34000000Y-11000000D01*
X23800000Y-16540000D02*
X22040000Y-16540000D01*
X22040000Y-16540000D02*
X21750000Y-16250000D01*
X21750000Y-16250000D02*
X21500000Y-16250000D01*
X19500000Y-16250000D02*
X21500000Y-16250000D01*
X29200000Y-16540000D02*
X29200000Y-17810000D01*
X29200000Y-17810000D02*
X29200000Y-18800000D01*
X29200000Y-18800000D02*
X27500000Y-20500000D01*
X19500000Y-17750000D02*
X19500000Y-19750000D01*
X19500000Y-19750000D02*
X21750000Y-22000000D01*
X21750000Y-22000000D02*
X26000000Y-22000000D01*
X26000000Y-22000000D02*
X27500000Y-20500000D01*
X23800000Y-17810000D02*
X23800000Y-19340000D01*
X23800000Y-19340000D02*
X24960000Y-20500000D01*
X23800000Y-17810000D02*
X21560000Y-17810000D01*
X21560000Y-17810000D02*
X21500000Y-17750000D01*
X35950000Y-1500000D02*
X35950000Y-1650000D01*
X35950000Y-1650000D02*
X36900000Y-2600000D01*
X36900000Y-2600000D02*
X36900000Y-3700000D01*
X36900000Y-3700000D02*
X37609998Y-4409998D01*
X37609998Y-4409998D02*
X41990002Y-4409998D01*
X41990002Y-4409998D02*
X42700000Y-3700000D01*
X42700000Y-3700000D02*
X42700000Y-2800000D01*
X20709998Y-8309998D02*
X20300000Y-7900000D01*
X30485808Y-8309998D02*
X20709998Y-8309998D01*
X31385808Y-9209998D02*
X30485808Y-8309998D01*
X42109998Y-9209998D02*
X31385808Y-9209998D01*
X44700000Y-11800000D02*
X42109998Y-9209998D01*
X44700000Y-16800000D02*
X44700000Y-11800000D01*
X44700000Y-16800000D02*
X44700000Y-19800000D01*
X44700000Y-19800000D02*
X44250000Y-20250000D01*
X43000000Y-20250000D02*
X43750000Y-20250000D01*
X43750000Y-20250000D02*
X44250000Y-20250000D01*
X22300000Y-7719996D02*
X22300000Y-7700000D01*
X22300000Y-7700000D02*
X20900000Y-6300000D01*
X16950000Y-3900000D02*
X18300000Y-5250000D01*
X45700000Y-11965612D02*
X45700000Y-20200000D01*
X42354384Y-8619996D02*
X45700000Y-11965612D01*
X31630194Y-8619996D02*
X42354384Y-8619996D01*
X30730194Y-7719996D02*
X31630194Y-8619996D01*
X22300000Y-7719996D02*
X30730194Y-7719996D01*
X18300000Y-5250000D02*
X18300000Y-6300000D01*
X45700000Y-20200000D02*
X45750000Y-20250000D01*
X45700000Y-20200000D02*
X45750000Y-20250000D01*
X47000000Y-20250000D02*
X45750000Y-20250000D01*
X46700000Y-16800000D02*
X46700000Y-18950000D01*
X48500000Y-19500000D02*
X48500000Y-20250000D01*
X48250000Y-19250000D02*
X48500000Y-19500000D01*
X47000000Y-19250000D02*
X48250000Y-19250000D01*
X46700000Y-18950000D02*
X47000000Y-19250000D01*
X11550000Y-3900000D02*
X11550000Y-1950000D01*
X11550000Y-1950000D02*
X11750000Y-1750000D01*
X10500000Y-8250000D02*
X10500000Y-7150000D01*
X10500000Y-7150000D02*
X11550000Y-6100000D01*
X40600000Y-19600000D02*
X40600000Y-19700000D01*
X40650000Y-19650000D02*
X40600000Y-19600000D01*
X40500000Y-19500000D02*
X40650000Y-19650000D01*
X40250000Y-20250000D02*
X40250000Y-20050000D01*
X40250000Y-20050000D02*
X40600000Y-19700000D01*
X40600000Y-19700000D02*
X41000000Y-19300000D01*
X41700000Y-19300000D02*
X42700000Y-18300000D01*
X41000000Y-19300000D02*
X41700000Y-19300000D01*
X42700000Y-18300000D02*
X42700000Y-16800000D01*
X40250000Y-20250000D02*
X40250000Y-20000000D01*
X10000000Y-15000000D02*
X11750000Y-15000000D01*
X8750000Y-17000000D02*
X8750000Y-16750000D01*
X8750000Y-16750000D02*
X9250000Y-16250000D01*
X9250000Y-16250000D02*
X9250000Y-15750000D01*
X9250000Y-15750000D02*
X10000000Y-15000000D01*
D31*
G36*
X5850578Y-1550578D02*
X5682146Y-1802655D01*
X5623000Y-2100000D01*
X5623000Y-3012766D01*
X5592171Y-2938154D01*
X5064624Y-2409684D01*
X4374996Y-2123326D01*
X3628280Y-2122675D01*
X2938154Y-2407829D01*
X2409684Y-2935376D01*
X2123326Y-3625004D01*
X2122675Y-4371720D01*
X2407829Y-5061846D01*
X2935376Y-5590316D01*
X3625004Y-5876674D01*
X4371720Y-5877325D01*
X5061846Y-5592171D01*
X5590316Y-5064624D01*
X5623000Y-4985912D01*
X5623000Y-8510376D01*
X5583852Y-8415855D01*
X5282222Y-8069550D01*
X4871027Y-7865034D01*
X4689540Y-7937510D01*
X4689540Y-8873900D01*
X4709540Y-8873900D01*
X4709540Y-9127900D01*
X4689540Y-9127900D01*
X4689540Y-10125900D01*
X4843817Y-10125900D01*
X4871027Y-10136766D01*
X4892874Y-10125900D01*
X5557790Y-10125900D01*
X5664540Y-10019150D01*
X5664540Y-9965964D01*
X5599533Y-9809024D01*
X5487303Y-9696794D01*
X5583852Y-9585945D01*
X5698395Y-9309385D01*
X5625229Y-9127902D01*
X5739540Y-9127902D01*
X5739540Y-9082261D01*
X5850578Y-9248442D01*
X6712257Y-10110121D01*
X6712257Y-10730508D01*
X6452655Y-10782146D01*
X6200578Y-10950578D01*
X5864698Y-11286458D01*
X5833103Y-11118548D01*
X5695783Y-10905147D01*
X5506625Y-10775900D01*
X5557790Y-10775900D01*
X5664540Y-10669150D01*
X5664540Y-10615964D01*
X5627234Y-10525900D01*
X5664540Y-10435836D01*
X5664540Y-10382650D01*
X5557790Y-10275900D01*
X5327303Y-10275900D01*
X5322475Y-10273900D01*
X4796290Y-10273900D01*
X4794290Y-10275900D01*
X4689540Y-10275900D01*
X4689540Y-10347900D01*
X4435540Y-10347900D01*
X4435540Y-10275900D01*
X4330790Y-10275900D01*
X4328790Y-10273900D01*
X3802605Y-10273900D01*
X3797777Y-10275900D01*
X3567290Y-10275900D01*
X3460540Y-10382650D01*
X3460540Y-10435836D01*
X3497846Y-10525900D01*
X3460540Y-10615964D01*
X3460540Y-10669150D01*
X3567290Y-10775900D01*
X3623232Y-10775900D01*
X3441787Y-10892657D01*
X3298623Y-11102183D01*
X3248257Y-11350900D01*
X3248257Y-11650900D01*
X3282394Y-11832324D01*
X3248257Y-12000900D01*
X3248257Y-12300900D01*
X3282394Y-12482324D01*
X3248257Y-12650900D01*
X3248257Y-12950900D01*
X3291977Y-13183252D01*
X3429297Y-13396653D01*
X3522738Y-13460499D01*
X3426685Y-13692415D01*
X3499852Y-13873900D01*
X4435540Y-13873900D01*
X4435540Y-13853900D01*
X4689540Y-13853900D01*
X4689540Y-13873900D01*
X5625228Y-13873900D01*
X5698395Y-13692415D01*
X5635601Y-13540802D01*
X5746445Y-13518754D01*
X5998522Y-13350322D01*
X6365094Y-12983750D01*
X6924540Y-12983750D01*
X6924540Y-13434376D01*
X6989547Y-13591316D01*
X7109664Y-13711433D01*
X7266605Y-13776440D01*
X7717230Y-13776440D01*
X7823980Y-13669690D01*
X7823980Y-12877000D01*
X7031290Y-12877000D01*
X6924540Y-12983750D01*
X6365094Y-12983750D01*
X6924540Y-12424304D01*
X6924540Y-12516250D01*
X7031290Y-12623000D01*
X7823980Y-12623000D01*
X7823980Y-12603000D01*
X8077980Y-12603000D01*
X8077980Y-12623000D01*
X8097980Y-12623000D01*
X8097980Y-12877000D01*
X8077980Y-12877000D01*
X8077980Y-13669690D01*
X8184730Y-13776440D01*
X8635355Y-13776440D01*
X8792296Y-13711433D01*
X8880610Y-13623119D01*
X8991337Y-13795193D01*
X9113473Y-13878646D01*
X9054247Y-13916757D01*
X8911083Y-14126283D01*
X8894034Y-14210476D01*
X8861993Y-14133124D01*
X8741876Y-14013007D01*
X8584935Y-13948000D01*
X8233750Y-13948000D01*
X8127000Y-14054750D01*
X8127000Y-14873000D01*
X8147000Y-14873000D01*
X8147000Y-15127000D01*
X8127000Y-15127000D01*
X8127000Y-15945250D01*
X8187659Y-16005909D01*
X8054247Y-16091757D01*
X7911083Y-16301283D01*
X7860717Y-16550000D01*
X7860717Y-17450000D01*
X7904437Y-17682352D01*
X8041757Y-17895753D01*
X8251283Y-18038917D01*
X8500000Y-18089283D01*
X9000000Y-18089283D01*
X9232352Y-18045563D01*
X9445753Y-17908243D01*
X9499334Y-17829826D01*
X9541757Y-17895753D01*
X9751283Y-18038917D01*
X10000000Y-18089283D01*
X10263000Y-18089283D01*
X10263000Y-18548936D01*
X9898778Y-18792303D01*
X9877993Y-18742124D01*
X9757876Y-18622007D01*
X9600936Y-18557000D01*
X8733750Y-18557000D01*
X8627000Y-18663750D01*
X8627000Y-19873000D01*
X8647000Y-19873000D01*
X8647000Y-20127000D01*
X8627000Y-20127000D01*
X8627000Y-21336250D01*
X8733750Y-21443000D01*
X9600936Y-21443000D01*
X9757876Y-21377993D01*
X9877993Y-21257876D01*
X9898778Y-21207697D01*
X10411251Y-21550122D01*
X11040000Y-21675188D01*
X11668749Y-21550122D01*
X12201776Y-21193964D01*
X12557934Y-20660937D01*
X12683000Y-20032188D01*
X12683000Y-19967812D01*
X12557934Y-19339063D01*
X12201776Y-18806036D01*
X11817000Y-18548936D01*
X11817000Y-18014283D01*
X12150000Y-18014283D01*
X12382352Y-17970563D01*
X12500110Y-17894788D01*
X12601283Y-17963917D01*
X12850000Y-18014283D01*
X13650000Y-18014283D01*
X13882352Y-17970563D01*
X14095753Y-17833243D01*
X14238917Y-17623717D01*
X14289283Y-17375000D01*
X14289283Y-17059561D01*
X14799422Y-16549422D01*
X14865467Y-16450578D01*
X14967854Y-16297345D01*
X15027000Y-16000000D01*
X15027000Y-15927000D01*
X15166250Y-15927000D01*
X15273000Y-15820250D01*
X15273000Y-15127000D01*
X15527000Y-15127000D01*
X15527000Y-15820250D01*
X15633750Y-15927000D01*
X16109936Y-15927000D01*
X16266876Y-15861993D01*
X16386993Y-15741876D01*
X16450000Y-15589763D01*
X16513007Y-15741876D01*
X16633124Y-15861993D01*
X16790064Y-15927000D01*
X17266250Y-15927000D01*
X17373000Y-15820250D01*
X17373000Y-15127000D01*
X16554750Y-15127000D01*
X16450000Y-15231750D01*
X16345250Y-15127000D01*
X15527000Y-15127000D01*
X15273000Y-15127000D01*
X15253000Y-15127000D01*
X15253000Y-14873000D01*
X15273000Y-14873000D01*
X15273000Y-14853000D01*
X15527000Y-14853000D01*
X15527000Y-14873000D01*
X16345250Y-14873000D01*
X16441250Y-14777000D01*
X16458750Y-14777000D01*
X16554750Y-14873000D01*
X17373000Y-14873000D01*
X17373000Y-14853000D01*
X17627000Y-14853000D01*
X17627000Y-14873000D01*
X17647000Y-14873000D01*
X17647000Y-15127000D01*
X17627000Y-15127000D01*
X17627000Y-15820250D01*
X17733750Y-15927000D01*
X17873000Y-15927000D01*
X17873000Y-18873000D01*
X12865858Y-18873000D01*
X12865858Y-21798000D01*
X4069139Y-21798000D01*
X2934515Y-21572309D01*
X2031240Y-20968760D01*
X1427691Y-20065485D01*
X1289693Y-19371720D01*
X2122675Y-19371720D01*
X2407829Y-20061846D01*
X2935376Y-20590316D01*
X3625004Y-20876674D01*
X4371720Y-20877325D01*
X5061846Y-20592171D01*
X5420894Y-20233750D01*
X7057000Y-20233750D01*
X7057000Y-21100935D01*
X7122007Y-21257876D01*
X7242124Y-21377993D01*
X7399064Y-21443000D01*
X8266250Y-21443000D01*
X8373000Y-21336250D01*
X8373000Y-20127000D01*
X7163750Y-20127000D01*
X7057000Y-20233750D01*
X5420894Y-20233750D01*
X5590316Y-20064624D01*
X5876674Y-19374996D01*
X5877088Y-18899065D01*
X7057000Y-18899065D01*
X7057000Y-19766250D01*
X7163750Y-19873000D01*
X8373000Y-19873000D01*
X8373000Y-18663750D01*
X8266250Y-18557000D01*
X7399064Y-18557000D01*
X7242124Y-18622007D01*
X7122007Y-18742124D01*
X7057000Y-18899065D01*
X5877088Y-18899065D01*
X5877325Y-18628280D01*
X5592171Y-17938154D01*
X5064624Y-17409684D01*
X4374996Y-17123326D01*
X3628280Y-17122675D01*
X2938154Y-17407829D01*
X2409684Y-17935376D01*
X2123326Y-18625004D01*
X2122675Y-19371720D01*
X1289693Y-19371720D01*
X1202000Y-18930860D01*
X1202000Y-16236669D01*
X1514756Y-16384881D01*
X1735540Y-16315497D01*
X1735540Y-15127900D01*
X1989540Y-15127900D01*
X1989540Y-16315497D01*
X2210324Y-16384881D01*
X2713477Y-16146441D01*
X3087083Y-15733602D01*
X3246511Y-15348683D01*
X3210153Y-15233750D01*
X7073000Y-15233750D01*
X7073000Y-15709936D01*
X7138007Y-15866876D01*
X7258124Y-15986993D01*
X7415065Y-16052000D01*
X7766250Y-16052000D01*
X7873000Y-15945250D01*
X7873000Y-15127000D01*
X7179750Y-15127000D01*
X7073000Y-15233750D01*
X3210153Y-15233750D01*
X3176667Y-15127900D01*
X1989540Y-15127900D01*
X1735540Y-15127900D01*
X1715540Y-15127900D01*
X1715540Y-14873900D01*
X1735540Y-14873900D01*
X1735540Y-13686303D01*
X1989540Y-13686303D01*
X1989540Y-14873900D01*
X3176667Y-14873900D01*
X3246511Y-14653117D01*
X3104143Y-14309385D01*
X3426685Y-14309385D01*
X3541228Y-14585945D01*
X3842858Y-14932250D01*
X4254053Y-15136766D01*
X4435540Y-15064290D01*
X4435540Y-14127900D01*
X4689540Y-14127900D01*
X4689540Y-15064290D01*
X4871027Y-15136766D01*
X5282222Y-14932250D01*
X5583852Y-14585945D01*
X5698395Y-14309385D01*
X5690606Y-14290064D01*
X7073000Y-14290064D01*
X7073000Y-14766250D01*
X7179750Y-14873000D01*
X7873000Y-14873000D01*
X7873000Y-14054750D01*
X7766250Y-13948000D01*
X7415065Y-13948000D01*
X7258124Y-14013007D01*
X7138007Y-14133124D01*
X7073000Y-14290064D01*
X5690606Y-14290064D01*
X5625228Y-14127900D01*
X4689540Y-14127900D01*
X4435540Y-14127900D01*
X3499852Y-14127900D01*
X3426685Y-14309385D01*
X3104143Y-14309385D01*
X3087083Y-14268198D01*
X2713477Y-13855359D01*
X2210324Y-13616919D01*
X1989540Y-13686303D01*
X1735540Y-13686303D01*
X1514756Y-13616919D01*
X1202000Y-13765131D01*
X1202000Y-9236669D01*
X1514756Y-9384881D01*
X1735540Y-9315497D01*
X1735540Y-8127900D01*
X1989540Y-8127900D01*
X1989540Y-9315497D01*
X2210324Y-9384881D01*
X2369634Y-9309385D01*
X3426685Y-9309385D01*
X3541228Y-9585945D01*
X3637777Y-9696794D01*
X3525547Y-9809024D01*
X3460540Y-9965964D01*
X3460540Y-10019150D01*
X3567290Y-10125900D01*
X4232206Y-10125900D01*
X4254053Y-10136766D01*
X4281263Y-10125900D01*
X4435540Y-10125900D01*
X4435540Y-9127900D01*
X3499852Y-9127900D01*
X3426685Y-9309385D01*
X2369634Y-9309385D01*
X2713477Y-9146441D01*
X3087083Y-8733602D01*
X3104142Y-8692415D01*
X3426685Y-8692415D01*
X3499852Y-8873900D01*
X4435540Y-8873900D01*
X4435540Y-7937510D01*
X4254053Y-7865034D01*
X3842858Y-8069550D01*
X3541228Y-8415855D01*
X3426685Y-8692415D01*
X3104142Y-8692415D01*
X3246511Y-8348683D01*
X3176667Y-8127900D01*
X1989540Y-8127900D01*
X1735540Y-8127900D01*
X1715540Y-8127900D01*
X1715540Y-7873900D01*
X1735540Y-7873900D01*
X1735540Y-6686303D01*
X1989540Y-6686303D01*
X1989540Y-7873900D01*
X3176667Y-7873900D01*
X3246511Y-7653117D01*
X3087083Y-7268198D01*
X2713477Y-6855359D01*
X2210324Y-6616919D01*
X1989540Y-6686303D01*
X1735540Y-6686303D01*
X1514756Y-6616919D01*
X1202000Y-6765131D01*
X1202000Y-4069140D01*
X1427691Y-2934515D01*
X2031240Y-2031240D01*
X2934515Y-1427691D01*
X4069139Y-1202000D01*
X6199156Y-1202000D01*
X5850578Y-1550578D01*
X5850578Y-1550578D01*
G37*
X5850578Y-1550578D02*
X5682146Y-1802655D01*
X5623000Y-2100000D01*
X5623000Y-3012766D01*
X5592171Y-2938154D01*
X5064624Y-2409684D01*
X4374996Y-2123326D01*
X3628280Y-2122675D01*
X2938154Y-2407829D01*
X2409684Y-2935376D01*
X2123326Y-3625004D01*
X2122675Y-4371720D01*
X2407829Y-5061846D01*
X2935376Y-5590316D01*
X3625004Y-5876674D01*
X4371720Y-5877325D01*
X5061846Y-5592171D01*
X5590316Y-5064624D01*
X5623000Y-4985912D01*
X5623000Y-8510376D01*
X5583852Y-8415855D01*
X5282222Y-8069550D01*
X4871027Y-7865034D01*
X4689540Y-7937510D01*
X4689540Y-8873900D01*
X4709540Y-8873900D01*
X4709540Y-9127900D01*
X4689540Y-9127900D01*
X4689540Y-10125900D01*
X4843817Y-10125900D01*
X4871027Y-10136766D01*
X4892874Y-10125900D01*
X5557790Y-10125900D01*
X5664540Y-10019150D01*
X5664540Y-9965964D01*
X5599533Y-9809024D01*
X5487303Y-9696794D01*
X5583852Y-9585945D01*
X5698395Y-9309385D01*
X5625229Y-9127902D01*
X5739540Y-9127902D01*
X5739540Y-9082261D01*
X5850578Y-9248442D01*
X6712257Y-10110121D01*
X6712257Y-10730508D01*
X6452655Y-10782146D01*
X6200578Y-10950578D01*
X5864698Y-11286458D01*
X5833103Y-11118548D01*
X5695783Y-10905147D01*
X5506625Y-10775900D01*
X5557790Y-10775900D01*
X5664540Y-10669150D01*
X5664540Y-10615964D01*
X5627234Y-10525900D01*
X5664540Y-10435836D01*
X5664540Y-10382650D01*
X5557790Y-10275900D01*
X5327303Y-10275900D01*
X5322475Y-10273900D01*
X4796290Y-10273900D01*
X4794290Y-10275900D01*
X4689540Y-10275900D01*
X4689540Y-10347900D01*
X4435540Y-10347900D01*
X4435540Y-10275900D01*
X4330790Y-10275900D01*
X4328790Y-10273900D01*
X3802605Y-10273900D01*
X3797777Y-10275900D01*
X3567290Y-10275900D01*
X3460540Y-10382650D01*
X3460540Y-10435836D01*
X3497846Y-10525900D01*
X3460540Y-10615964D01*
X3460540Y-10669150D01*
X3567290Y-10775900D01*
X3623232Y-10775900D01*
X3441787Y-10892657D01*
X3298623Y-11102183D01*
X3248257Y-11350900D01*
X3248257Y-11650900D01*
X3282394Y-11832324D01*
X3248257Y-12000900D01*
X3248257Y-12300900D01*
X3282394Y-12482324D01*
X3248257Y-12650900D01*
X3248257Y-12950900D01*
X3291977Y-13183252D01*
X3429297Y-13396653D01*
X3522738Y-13460499D01*
X3426685Y-13692415D01*
X3499852Y-13873900D01*
X4435540Y-13873900D01*
X4435540Y-13853900D01*
X4689540Y-13853900D01*
X4689540Y-13873900D01*
X5625228Y-13873900D01*
X5698395Y-13692415D01*
X5635601Y-13540802D01*
X5746445Y-13518754D01*
X5998522Y-13350322D01*
X6365094Y-12983750D01*
X6924540Y-12983750D01*
X6924540Y-13434376D01*
X6989547Y-13591316D01*
X7109664Y-13711433D01*
X7266605Y-13776440D01*
X7717230Y-13776440D01*
X7823980Y-13669690D01*
X7823980Y-12877000D01*
X7031290Y-12877000D01*
X6924540Y-12983750D01*
X6365094Y-12983750D01*
X6924540Y-12424304D01*
X6924540Y-12516250D01*
X7031290Y-12623000D01*
X7823980Y-12623000D01*
X7823980Y-12603000D01*
X8077980Y-12603000D01*
X8077980Y-12623000D01*
X8097980Y-12623000D01*
X8097980Y-12877000D01*
X8077980Y-12877000D01*
X8077980Y-13669690D01*
X8184730Y-13776440D01*
X8635355Y-13776440D01*
X8792296Y-13711433D01*
X8880610Y-13623119D01*
X8991337Y-13795193D01*
X9113473Y-13878646D01*
X9054247Y-13916757D01*
X8911083Y-14126283D01*
X8894034Y-14210476D01*
X8861993Y-14133124D01*
X8741876Y-14013007D01*
X8584935Y-13948000D01*
X8233750Y-13948000D01*
X8127000Y-14054750D01*
X8127000Y-14873000D01*
X8147000Y-14873000D01*
X8147000Y-15127000D01*
X8127000Y-15127000D01*
X8127000Y-15945250D01*
X8187659Y-16005909D01*
X8054247Y-16091757D01*
X7911083Y-16301283D01*
X7860717Y-16550000D01*
X7860717Y-17450000D01*
X7904437Y-17682352D01*
X8041757Y-17895753D01*
X8251283Y-18038917D01*
X8500000Y-18089283D01*
X9000000Y-18089283D01*
X9232352Y-18045563D01*
X9445753Y-17908243D01*
X9499334Y-17829826D01*
X9541757Y-17895753D01*
X9751283Y-18038917D01*
X10000000Y-18089283D01*
X10263000Y-18089283D01*
X10263000Y-18548936D01*
X9898778Y-18792303D01*
X9877993Y-18742124D01*
X9757876Y-18622007D01*
X9600936Y-18557000D01*
X8733750Y-18557000D01*
X8627000Y-18663750D01*
X8627000Y-19873000D01*
X8647000Y-19873000D01*
X8647000Y-20127000D01*
X8627000Y-20127000D01*
X8627000Y-21336250D01*
X8733750Y-21443000D01*
X9600936Y-21443000D01*
X9757876Y-21377993D01*
X9877993Y-21257876D01*
X9898778Y-21207697D01*
X10411251Y-21550122D01*
X11040000Y-21675188D01*
X11668749Y-21550122D01*
X12201776Y-21193964D01*
X12557934Y-20660937D01*
X12683000Y-20032188D01*
X12683000Y-19967812D01*
X12557934Y-19339063D01*
X12201776Y-18806036D01*
X11817000Y-18548936D01*
X11817000Y-18014283D01*
X12150000Y-18014283D01*
X12382352Y-17970563D01*
X12500110Y-17894788D01*
X12601283Y-17963917D01*
X12850000Y-18014283D01*
X13650000Y-18014283D01*
X13882352Y-17970563D01*
X14095753Y-17833243D01*
X14238917Y-17623717D01*
X14289283Y-17375000D01*
X14289283Y-17059561D01*
X14799422Y-16549422D01*
X14865467Y-16450578D01*
X14967854Y-16297345D01*
X15027000Y-16000000D01*
X15027000Y-15927000D01*
X15166250Y-15927000D01*
X15273000Y-15820250D01*
X15273000Y-15127000D01*
X15527000Y-15127000D01*
X15527000Y-15820250D01*
X15633750Y-15927000D01*
X16109936Y-15927000D01*
X16266876Y-15861993D01*
X16386993Y-15741876D01*
X16450000Y-15589763D01*
X16513007Y-15741876D01*
X16633124Y-15861993D01*
X16790064Y-15927000D01*
X17266250Y-15927000D01*
X17373000Y-15820250D01*
X17373000Y-15127000D01*
X16554750Y-15127000D01*
X16450000Y-15231750D01*
X16345250Y-15127000D01*
X15527000Y-15127000D01*
X15273000Y-15127000D01*
X15253000Y-15127000D01*
X15253000Y-14873000D01*
X15273000Y-14873000D01*
X15273000Y-14853000D01*
X15527000Y-14853000D01*
X15527000Y-14873000D01*
X16345250Y-14873000D01*
X16441250Y-14777000D01*
X16458750Y-14777000D01*
X16554750Y-14873000D01*
X17373000Y-14873000D01*
X17373000Y-14853000D01*
X17627000Y-14853000D01*
X17627000Y-14873000D01*
X17647000Y-14873000D01*
X17647000Y-15127000D01*
X17627000Y-15127000D01*
X17627000Y-15820250D01*
X17733750Y-15927000D01*
X17873000Y-15927000D01*
X17873000Y-18873000D01*
X12865858Y-18873000D01*
X12865858Y-21798000D01*
X4069139Y-21798000D01*
X2934515Y-21572309D01*
X2031240Y-20968760D01*
X1427691Y-20065485D01*
X1289693Y-19371720D01*
X2122675Y-19371720D01*
X2407829Y-20061846D01*
X2935376Y-20590316D01*
X3625004Y-20876674D01*
X4371720Y-20877325D01*
X5061846Y-20592171D01*
X5420894Y-20233750D01*
X7057000Y-20233750D01*
X7057000Y-21100935D01*
X7122007Y-21257876D01*
X7242124Y-21377993D01*
X7399064Y-21443000D01*
X8266250Y-21443000D01*
X8373000Y-21336250D01*
X8373000Y-20127000D01*
X7163750Y-20127000D01*
X7057000Y-20233750D01*
X5420894Y-20233750D01*
X5590316Y-20064624D01*
X5876674Y-19374996D01*
X5877088Y-18899065D01*
X7057000Y-18899065D01*
X7057000Y-19766250D01*
X7163750Y-19873000D01*
X8373000Y-19873000D01*
X8373000Y-18663750D01*
X8266250Y-18557000D01*
X7399064Y-18557000D01*
X7242124Y-18622007D01*
X7122007Y-18742124D01*
X7057000Y-18899065D01*
X5877088Y-18899065D01*
X5877325Y-18628280D01*
X5592171Y-17938154D01*
X5064624Y-17409684D01*
X4374996Y-17123326D01*
X3628280Y-17122675D01*
X2938154Y-17407829D01*
X2409684Y-17935376D01*
X2123326Y-18625004D01*
X2122675Y-19371720D01*
X1289693Y-19371720D01*
X1202000Y-18930860D01*
X1202000Y-16236669D01*
X1514756Y-16384881D01*
X1735540Y-16315497D01*
X1735540Y-15127900D01*
X1989540Y-15127900D01*
X1989540Y-16315497D01*
X2210324Y-16384881D01*
X2713477Y-16146441D01*
X3087083Y-15733602D01*
X3246511Y-15348683D01*
X3210153Y-15233750D01*
X7073000Y-15233750D01*
X7073000Y-15709936D01*
X7138007Y-15866876D01*
X7258124Y-15986993D01*
X7415065Y-16052000D01*
X7766250Y-16052000D01*
X7873000Y-15945250D01*
X7873000Y-15127000D01*
X7179750Y-15127000D01*
X7073000Y-15233750D01*
X3210153Y-15233750D01*
X3176667Y-15127900D01*
X1989540Y-15127900D01*
X1735540Y-15127900D01*
X1715540Y-15127900D01*
X1715540Y-14873900D01*
X1735540Y-14873900D01*
X1735540Y-13686303D01*
X1989540Y-13686303D01*
X1989540Y-14873900D01*
X3176667Y-14873900D01*
X3246511Y-14653117D01*
X3104143Y-14309385D01*
X3426685Y-14309385D01*
X3541228Y-14585945D01*
X3842858Y-14932250D01*
X4254053Y-15136766D01*
X4435540Y-15064290D01*
X4435540Y-14127900D01*
X4689540Y-14127900D01*
X4689540Y-15064290D01*
X4871027Y-15136766D01*
X5282222Y-14932250D01*
X5583852Y-14585945D01*
X5698395Y-14309385D01*
X5690606Y-14290064D01*
X7073000Y-14290064D01*
X7073000Y-14766250D01*
X7179750Y-14873000D01*
X7873000Y-14873000D01*
X7873000Y-14054750D01*
X7766250Y-13948000D01*
X7415065Y-13948000D01*
X7258124Y-14013007D01*
X7138007Y-14133124D01*
X7073000Y-14290064D01*
X5690606Y-14290064D01*
X5625228Y-14127900D01*
X4689540Y-14127900D01*
X4435540Y-14127900D01*
X3499852Y-14127900D01*
X3426685Y-14309385D01*
X3104143Y-14309385D01*
X3087083Y-14268198D01*
X2713477Y-13855359D01*
X2210324Y-13616919D01*
X1989540Y-13686303D01*
X1735540Y-13686303D01*
X1514756Y-13616919D01*
X1202000Y-13765131D01*
X1202000Y-9236669D01*
X1514756Y-9384881D01*
X1735540Y-9315497D01*
X1735540Y-8127900D01*
X1989540Y-8127900D01*
X1989540Y-9315497D01*
X2210324Y-9384881D01*
X2369634Y-9309385D01*
X3426685Y-9309385D01*
X3541228Y-9585945D01*
X3637777Y-9696794D01*
X3525547Y-9809024D01*
X3460540Y-9965964D01*
X3460540Y-10019150D01*
X3567290Y-10125900D01*
X4232206Y-10125900D01*
X4254053Y-10136766D01*
X4281263Y-10125900D01*
X4435540Y-10125900D01*
X4435540Y-9127900D01*
X3499852Y-9127900D01*
X3426685Y-9309385D01*
X2369634Y-9309385D01*
X2713477Y-9146441D01*
X3087083Y-8733602D01*
X3104142Y-8692415D01*
X3426685Y-8692415D01*
X3499852Y-8873900D01*
X4435540Y-8873900D01*
X4435540Y-7937510D01*
X4254053Y-7865034D01*
X3842858Y-8069550D01*
X3541228Y-8415855D01*
X3426685Y-8692415D01*
X3104142Y-8692415D01*
X3246511Y-8348683D01*
X3176667Y-8127900D01*
X1989540Y-8127900D01*
X1735540Y-8127900D01*
X1715540Y-8127900D01*
X1715540Y-7873900D01*
X1735540Y-7873900D01*
X1735540Y-6686303D01*
X1989540Y-6686303D01*
X1989540Y-7873900D01*
X3176667Y-7873900D01*
X3246511Y-7653117D01*
X3087083Y-7268198D01*
X2713477Y-6855359D01*
X2210324Y-6616919D01*
X1989540Y-6686303D01*
X1735540Y-6686303D01*
X1514756Y-6616919D01*
X1202000Y-6765131D01*
X1202000Y-4069140D01*
X1427691Y-2934515D01*
X2031240Y-2031240D01*
X2934515Y-1427691D01*
X4069139Y-1202000D01*
X6199156Y-1202000D01*
X5850578Y-1550578D01*
G36*
X8140670Y-1800764D02*
X7762462Y-2217857D01*
X7600164Y-2609705D01*
X7669799Y-2833000D01*
X8873000Y-2833000D01*
X8873000Y-2813000D01*
X9127000Y-2813000D01*
X9127000Y-2833000D01*
X10330201Y-2833000D01*
X10399836Y-2609705D01*
X10237538Y-2217857D01*
X9859330Y-1800764D01*
X9385936Y-1577000D01*
X10860717Y-1577000D01*
X10860717Y-1609895D01*
X10832146Y-1652655D01*
X10773000Y-1950000D01*
X10773000Y-2920900D01*
X10636083Y-3121283D01*
X10585717Y-3370000D01*
X10585717Y-4211482D01*
X10474243Y-4038247D01*
X10264717Y-3895083D01*
X10093944Y-3860501D01*
X10237538Y-3702143D01*
X10399836Y-3310295D01*
X10330201Y-3087000D01*
X9127000Y-3087000D01*
X9127000Y-3107000D01*
X8873000Y-3107000D01*
X8873000Y-3087000D01*
X7669799Y-3087000D01*
X7600164Y-3310295D01*
X7762462Y-3702143D01*
X7905191Y-3859546D01*
X7751648Y-3888437D01*
X7538247Y-4025757D01*
X7395083Y-4235283D01*
X7344717Y-4484000D01*
X7344717Y-6516000D01*
X7388437Y-6748352D01*
X7525757Y-6961753D01*
X7735283Y-7104917D01*
X7984000Y-7155283D01*
X9723000Y-7155283D01*
X9723000Y-7460665D01*
X9661083Y-7551283D01*
X9644034Y-7635476D01*
X9611993Y-7558124D01*
X9491876Y-7438007D01*
X9334935Y-7373000D01*
X9231750Y-7373000D01*
X9125000Y-7479750D01*
X9125000Y-8123000D01*
X9147000Y-8123000D01*
X9147000Y-8377000D01*
X9125000Y-8377000D01*
X9125000Y-9020250D01*
X9182253Y-9077503D01*
X9003827Y-9192317D01*
X8999548Y-9198579D01*
X8819615Y-9075635D01*
X8875000Y-9020250D01*
X8875000Y-8377000D01*
X8429750Y-8377000D01*
X8323000Y-8483750D01*
X8323000Y-8784936D01*
X8388007Y-8941876D01*
X8457408Y-9011277D01*
X7811101Y-9011277D01*
X7177000Y-8377176D01*
X7177000Y-7715064D01*
X8323000Y-7715064D01*
X8323000Y-8016250D01*
X8429750Y-8123000D01*
X8875000Y-8123000D01*
X8875000Y-7479750D01*
X8768250Y-7373000D01*
X8665065Y-7373000D01*
X8508124Y-7438007D01*
X8388007Y-7558124D01*
X8323000Y-7715064D01*
X7177000Y-7715064D01*
X7177000Y-2421844D01*
X8021844Y-1577000D01*
X8614064Y-1577000D01*
X8140670Y-1800764D01*
X8140670Y-1800764D01*
G37*
X8140670Y-1800764D02*
X7762462Y-2217857D01*
X7600164Y-2609705D01*
X7669799Y-2833000D01*
X8873000Y-2833000D01*
X8873000Y-2813000D01*
X9127000Y-2813000D01*
X9127000Y-2833000D01*
X10330201Y-2833000D01*
X10399836Y-2609705D01*
X10237538Y-2217857D01*
X9859330Y-1800764D01*
X9385936Y-1577000D01*
X10860717Y-1577000D01*
X10860717Y-1609895D01*
X10832146Y-1652655D01*
X10773000Y-1950000D01*
X10773000Y-2920900D01*
X10636083Y-3121283D01*
X10585717Y-3370000D01*
X10585717Y-4211482D01*
X10474243Y-4038247D01*
X10264717Y-3895083D01*
X10093944Y-3860501D01*
X10237538Y-3702143D01*
X10399836Y-3310295D01*
X10330201Y-3087000D01*
X9127000Y-3087000D01*
X9127000Y-3107000D01*
X8873000Y-3107000D01*
X8873000Y-3087000D01*
X7669799Y-3087000D01*
X7600164Y-3310295D01*
X7762462Y-3702143D01*
X7905191Y-3859546D01*
X7751648Y-3888437D01*
X7538247Y-4025757D01*
X7395083Y-4235283D01*
X7344717Y-4484000D01*
X7344717Y-6516000D01*
X7388437Y-6748352D01*
X7525757Y-6961753D01*
X7735283Y-7104917D01*
X7984000Y-7155283D01*
X9723000Y-7155283D01*
X9723000Y-7460665D01*
X9661083Y-7551283D01*
X9644034Y-7635476D01*
X9611993Y-7558124D01*
X9491876Y-7438007D01*
X9334935Y-7373000D01*
X9231750Y-7373000D01*
X9125000Y-7479750D01*
X9125000Y-8123000D01*
X9147000Y-8123000D01*
X9147000Y-8377000D01*
X9125000Y-8377000D01*
X9125000Y-9020250D01*
X9182253Y-9077503D01*
X9003827Y-9192317D01*
X8999548Y-9198579D01*
X8819615Y-9075635D01*
X8875000Y-9020250D01*
X8875000Y-8377000D01*
X8429750Y-8377000D01*
X8323000Y-8483750D01*
X8323000Y-8784936D01*
X8388007Y-8941876D01*
X8457408Y-9011277D01*
X7811101Y-9011277D01*
X7177000Y-8377176D01*
X7177000Y-7715064D01*
X8323000Y-7715064D01*
X8323000Y-8016250D01*
X8429750Y-8123000D01*
X8875000Y-8123000D01*
X8875000Y-7479750D01*
X8768250Y-7373000D01*
X8665065Y-7373000D01*
X8508124Y-7438007D01*
X8388007Y-7558124D01*
X8323000Y-7715064D01*
X7177000Y-7715064D01*
X7177000Y-2421844D01*
X8021844Y-1577000D01*
X8614064Y-1577000D01*
X8140670Y-1800764D01*
G36*
X17127000Y-7873000D02*
X17147000Y-7873000D01*
X17147000Y-8127000D01*
X17127000Y-8127000D01*
X17127000Y-8147000D01*
X16873000Y-8147000D01*
X16873000Y-8127000D01*
X16853000Y-8127000D01*
X16853000Y-7873000D01*
X16873000Y-7873000D01*
X16873000Y-7853000D01*
X17127000Y-7853000D01*
X17127000Y-7873000D01*
X17127000Y-7873000D01*
G37*
X17127000Y-7873000D02*
X17147000Y-7873000D01*
X17147000Y-8127000D01*
X17127000Y-8127000D01*
X17127000Y-8147000D01*
X16873000Y-8147000D01*
X16873000Y-8127000D01*
X16853000Y-8127000D01*
X16853000Y-7873000D01*
X16873000Y-7873000D01*
X16873000Y-7853000D01*
X17127000Y-7853000D01*
X17127000Y-7873000D01*
G36*
X12541757Y-2645753D02*
X12751283Y-2788917D01*
X12841693Y-2807225D01*
X12679247Y-2911757D01*
X12536083Y-3121283D01*
X12500524Y-3296879D01*
X12470563Y-3137648D01*
X12333243Y-2924247D01*
X12327000Y-2919981D01*
X12327000Y-2734659D01*
X12445753Y-2658243D01*
X12499334Y-2579826D01*
X12541757Y-2645753D01*
X12541757Y-2645753D01*
G37*
X12541757Y-2645753D02*
X12751283Y-2788917D01*
X12841693Y-2807225D01*
X12679247Y-2911757D01*
X12536083Y-3121283D01*
X12500524Y-3296879D01*
X12470563Y-3137648D01*
X12333243Y-2924247D01*
X12327000Y-2919981D01*
X12327000Y-2734659D01*
X12445753Y-2658243D01*
X12499334Y-2579826D01*
X12541757Y-2645753D01*
G36*
X17127000Y-1873000D02*
X17147000Y-1873000D01*
X17147000Y-2127000D01*
X17127000Y-2127000D01*
X17127000Y-2147000D01*
X16873000Y-2147000D01*
X16873000Y-2127000D01*
X16853000Y-2127000D01*
X16853000Y-1873000D01*
X16873000Y-1873000D01*
X16873000Y-1853000D01*
X17127000Y-1853000D01*
X17127000Y-1873000D01*
X17127000Y-1873000D01*
G37*
X17127000Y-1873000D02*
X17147000Y-1873000D01*
X17147000Y-2127000D01*
X17127000Y-2127000D01*
X17127000Y-2147000D01*
X16873000Y-2147000D01*
X16873000Y-2127000D01*
X16853000Y-2127000D01*
X16853000Y-1873000D01*
X16873000Y-1873000D01*
X16873000Y-1853000D01*
X17127000Y-1853000D01*
X17127000Y-1873000D01*
D32*
X10400000Y-5500000D03*
X37250000Y-1500000D03*
X30500000Y-13600000D03*
X36900000Y-20700000D03*
X21900000Y-3800000D03*
X10500000Y-2000000D03*
X18250000Y-7500000D03*
X17500000Y-16750000D03*
X6750000Y-12750000D03*
X6500000Y-10250000D03*
X22500000Y-10100000D03*
X23400000Y-6800000D03*
X51200000Y-21700000D03*
X35200000Y-11700000D03*
X32600000Y-4000000D03*
X28250000Y-3750000D03*
X34000000Y-5250000D03*
X20300000Y-7900000D03*
X20900000Y-6300000D03*
X18300000Y-6300000D03*
X40500000Y-19500000D03*
X58000000Y-19000000D03*
X9000000Y-5500000D03*
X9000000Y-2960000D03*
X8500000Y-20000000D03*
X11040000Y-20000000D03*
X32100000Y-2200000D03*
X29560000Y-2200000D03*
X27020000Y-2200000D03*
X24480000Y-2200000D03*
X21940000Y-2200000D03*
X19400000Y-2200000D03*
X4562540Y-14000900D03*
X4562540Y-9000900D03*
X1862540Y-15000900D03*
X1862540Y-8000900D03*
X27500000Y-20500000D03*
X24960000Y-20500000D03*
X4000000Y-4000000D03*
X4000000Y-19000000D03*
M02*
